<?xml version="1.0" encoding="UTF-8"?>
<svg width="64px" height="64px" viewBox="0 0 64 64" version="1.1" xmlns="http://www.w3.org/2000/svg" xmlns:xlink="http://www.w3.org/1999/xlink">
    <title>icon/about-colored</title>
    <g id="icon/about-colored" stroke="none" stroke-width="1" fill="none" fill-rule="evenodd">
        <circle id="Oval-2" fill="#FFFFFF" cx="32" cy="32" r="22"></circle>
        <path d="M32,9 C19.2974508,9 9,19.2974508 9,32 C9,44.7025492 19.2974508,55 32,55 C44.7025492,55 55,44.7025492 55,32 C55,19.2974508 44.7025492,9 32,9 Z M32,11 C43.5979797,11 53,20.4020203 53,32 C53,43.5979797 43.5979797,53 32,53 C20.4020203,53 11,43.5979797 11,32 C11,20.4020203 20.4020203,11 32,11 Z" id="Oval-1" fill="#181F65" fill-rule="nonzero"></path>
        <path d="M32.4816678,28.6487236 C33.5519975,28.8896192 34.0554806,29.5090649 34.2849592,29.9736493 C34.7302164,30.8838904 34.641165,32.0900889 34.0023922,33.6748377 C34.0023922,33.6748377 31.8531702,38.9900264 31.592866,39.6146342 C31.498677,39.8262782 31.6014287,40.0843806 31.9096836,40.0637324 C32.2230762,40.0258774 32.7111465,39.9570501 33.4458208,39.7626129 C33.8024249,39.6788786 34.1709942,39.8433111 34.3483228,40.1652527 C34.5368625,40.4967915 34.5077878,40.9098511 34.2746841,41.2114277 C32.3823412,43.4672427 30.3033328,44.3671598 28.0804722,43.8647204 C27.0101425,43.6221042 26.5066594,43.0043791 26.2771807,42.5397948 C25.8319236,41.6295536 25.920975,40.4233551 26.5597478,38.8386063 C26.5597478,38.8386063 28.7089698,33.5234176 28.9692739,32.8988098 C29.0634629,32.6854451 28.9624238,32.4290634 28.6524563,32.4497116 C28.1338371,32.5126282 27.6204439,32.6132655 27.1163192,32.7508311 C26.7595433,32.8364166 26.3898942,32.6715024 26.2138172,32.3481913 C26.0252775,32.0166525 26.0543521,31.6035929 26.2874559,31.3020163 C28.1797988,29.0462013 30.2588071,28.1462843 32.4816678,28.6487236 Z M35.2853625,20.0759338 C37.100486,20.4637115 38.2785914,22.2327665 37.942918,24.0665457 C37.5475684,25.9240356 35.7303734,27.1094516 33.8808028,26.716397 C32.031998,26.3191208 30.8516948,24.4936754 31.2417979,22.6349377 C31.6777099,20.8225732 33.470239,19.688156 35.2853625,20.0759338 Z" id="Combined-Shape" fill="#46BEB9" fill-rule="nonzero"></path>
    </g>
</svg>