<?xml version="1.0" encoding="UTF-8"?>
<svg width="64px" height="64px" viewBox="0 0 64 64" version="1.1" xmlns="http://www.w3.org/2000/svg" xmlns:xlink="http://www.w3.org/1999/xlink">
    <title>icon/deals-colored</title>
    <g id="icon/deals-colored" stroke="none" stroke-width="1" fill="none" fill-rule="evenodd">
        <path d="M30.1021431,11.0005534 L30.3892824,11.003324 L40.7336209,11.3406863 C44.8636989,11.4753815 48.1979604,14.7297354 48.4590401,18.8263826 L48.4711653,19.0782308 L48.5139174,20.3891141 C48.5319197,20.9411054 48.099036,21.4031764 47.5470447,21.4211787 C47.0344814,21.437895 46.5994514,21.0658373 46.5255058,20.5706458 L46.5149802,20.4543059 L46.4722281,19.1434226 C46.3716538,16.0595731 43.9518162,13.5669727 40.8985828,13.3514889 L40.6684291,13.3396235 L30.3240906,13.0022613 C29.2287885,12.9665399 28.1656774,13.3553905 27.3541167,14.0820765 L27.184141,14.2429343 L10.2429306,31.1841447 C8.63826131,32.788814 8.5873934,35.3596127 10.0901183,37.0281378 L10.2455694,37.1919136 L22.6199381,49.5662822 C24.2262356,51.1725797 26.7970868,51.2252914 28.4640887,49.7242086 L28.6277069,49.568921 L45.5689173,32.6277106 C46.343423,31.8532049 46.7862887,30.8114802 46.810778,29.721896 L46.8095904,29.487761 L46.7553722,27.8253023 C46.73737,27.2733111 47.1702537,26.81124 47.7222449,26.7932378 C48.2348083,26.7765215 48.6698383,27.1485792 48.7437839,27.6437707 L48.7543094,27.7601105 L48.8085276,29.4225692 C48.8616985,31.0529158 48.2752797,32.6350164 47.1814079,33.8343235 L46.9831309,34.0419242 L30.0419205,50.9831346 C27.6634742,53.3615808 23.8432459,53.4197049 21.3915684,51.158972 L21.2057245,50.9804958 L8.83135584,38.6061271 C6.45170814,36.2264794 6.39087984,32.406221 8.65033618,29.9556849 L8.82871703,29.7699312 L25.7699274,12.8287208 C26.9230424,11.6756058 28.4786302,11.0221711 30.1021431,11.0005534 Z" id="Path" fill="#181F65" fill-rule="nonzero"></path>
        <path d="M34.0983516,17.2282187 C36.4414973,14.8850729 40.2404872,14.8850729 42.5836329,17.2282187 C42.9741572,17.618743 42.9741572,18.2519079 42.5836329,18.6424322 C42.1931087,19.0329565 41.5599437,19.0329565 41.1694194,18.6424322 C39.6073222,17.0803351 37.0746623,17.0803351 35.5125651,18.6424322 C33.950468,20.2045294 33.950468,22.7371893 35.5125651,24.2992865 C35.9030894,24.6898108 35.9030894,25.3229758 35.5125651,25.7135001 C35.1220408,26.1040243 34.4888759,26.1040243 34.0983516,25.7135001 C31.7552058,23.3703543 31.7552058,19.5713644 34.0983516,17.2282187 Z" id="Path" fill="#46BEB9" fill-rule="nonzero"></path>
        <path d="M37.6338855,20.7637526 C38.0244098,20.3732283 38.6575748,20.3732283 39.048099,20.7637526 C42.6681134,24.3837669 51.2154428,24.152758 54.6044482,20.7637526 C54.9949725,20.3732283 55.6281375,20.3732283 56.0186618,20.7637526 C56.4091861,21.1542769 56.4091861,21.7874419 56.0186618,22.1779661 C51.8651949,26.3314331 42.0525588,26.5966394 37.6338855,22.1779661 C37.2433612,21.7874419 37.2433612,21.1542769 37.6338855,20.7637526 Z" id="Path-15" fill="#181F65" fill-rule="nonzero"></path>
        <path d="M22.1573632,37.6544884 L23.1472342,41.4657287 C23.3283222,42.1638803 24.2484555,42.3196586 24.6161082,41.7206271 L26.6325779,38.4315737 L30.5427208,38.7672328 C31.2562553,38.8288174 31.6662426,38.0023482 31.1965509,37.4539729 L28.6330819,34.4296427 L30.0464516,30.8297427 C30.3050204,30.1778299 29.6340218,29.5068312 28.9821089,29.7654 L25.3878292,31.1731495 L22.363499,28.6096804 C21.8151237,28.1399887 20.9886544,28.5499761 21.0502391,29.2635106 L21.3858982,33.1736535 L18.0968448,35.1901232 C17.4978132,35.5577759 17.6535916,36.4779092 18.3517432,36.6589972 L22.1573632,37.6544884 Z" id="🔹-Icon-Color" fill="#46BEB9" fill-rule="nonzero"></path>
    </g>
</svg>