<?xml version="1.0" encoding="UTF-8"?>
<svg width="64px" height="64px" viewBox="0 0 64 64" version="1.1" xmlns="http://www.w3.org/2000/svg" xmlns:xlink="http://www.w3.org/1999/xlink">
    <title>icon/news-colored</title>
    <g id="icon/news-colored" stroke="none" stroke-width="1" fill="none" fill-rule="evenodd">
        <rect id="Rectangle-Copy-5" fill="#FFFFFF" x="16" y="10" width="32" height="36" rx="3"></rect>
        <path d="M45,9 L19,9 C16.790861,9 15,10.790861 15,13 L15,43 C15,45.209139 16.790861,47 19,47 L45,47 C47.209139,47 49,45.209139 49,43 L49,13 C49,10.790861 47.209139,9 45,9 Z M19,11 L45,11 C46.1045695,11 47,11.8954305 47,13 L47,43 C47,44.1045695 46.1045695,45 45,45 L19,45 C17.8954305,45 17,44.1045695 17,43 L17,13 C17,11.8954305 17.8954305,11 19,11 Z" id="Rectangle-Copy-2" fill="#181F65" fill-rule="nonzero"></path>
        <rect id="Rectangle-Copy-4" fill="#FFFFFF" x="12" y="15" width="40" height="34" rx="3"></rect>
        <path d="M49,14 L15,14 C12.790861,14 11,15.790861 11,18 L11,46 C11,48.209139 12.790861,50 15,50 L49,50 C51.209139,50 53,48.209139 53,46 L53,18 C53,15.790861 51.209139,14 49,14 Z M15,16 L49,16 C50.1045695,16 51,16.8954305 51,18 L51,46 C51,47.1045695 50.1045695,48 49,48 L15,48 C13.8954305,48 13,47.1045695 13,46 L13,18 C13,16.8954305 13.8954305,16 15,16 Z" id="Rectangle-Copy" fill="#181F65" fill-rule="nonzero"></path>
        <rect id="Rectangle-Copy-3" fill="#FFFFFF" x="8" y="20" width="48" height="34" rx="3"></rect>
        <path d="M53,19 L11,19 C8.790861,19 7,20.790861 7,23 L7,51 C7,53.209139 8.790861,55 11,55 L53,55 C55.209139,55 57,53.209139 57,51 L57,23 C57,20.790861 55.209139,19 53,19 Z M11,21 L53,21 C54.1045695,21 55,21.8954305 55,23 L55,51 C55,52.1045695 54.1045695,53 53,53 L11,53 C9.8954305,53 9,52.1045695 9,51 L9,23 C9,21.8954305 9.8954305,21 11,21 Z" id="Rectangle" fill="#181F65" fill-rule="nonzero"></path>
        <path d="M48,25 L16,25 C14.3431458,25 13,26.3431458 13,28 L13,41 C13,42.6568542 14.3431458,44 16,44 L48,44 C49.6568542,44 51,42.6568542 51,41 L51,28 C51,26.3431458 49.6568542,25 48,25 Z M16,27 L48,27 C48.5522847,27 49,27.4477153 49,28 L49,41 C49,41.5522847 48.5522847,42 48,42 L16,42 C15.4477153,42 15,41.5522847 15,41 L15,28 C15,27.4477153 15.4477153,27 16,27 Z" id="Rectangle" fill="#46BEB9" fill-rule="nonzero"></path>
        <path d="M43.2407434,30.3492086 C43.6132326,29.9146379 44.2655458,29.8856665 44.6753448,30.2622945 L44.7592566,30.3492086 L50.7592566,37.3492086 C51.1186788,37.7685345 51.0701172,38.3998345 50.6507914,38.7592566 C50.2637214,39.0910309 49.6960343,39.0751741 49.328293,38.7409603 L49.2407434,38.6507914 L43.9999914,32.536 L38.7592566,38.6507914 C38.3784227,39.0950976 37.7080503,39.1137893 37.3019141,38.7162496 L37.2191312,38.624695 L33.955,34.544 L25.7432941,43.6689647 C25.4022551,44.0478971 24.8372654,44.1054013 24.4294847,43.8214163 L24.3310353,43.7432941 C23.9521029,43.4022551 23.8945987,42.8372654 24.1785837,42.4294847 L24.2567059,42.3310353 L33.2567059,32.3310353 C33.6420445,31.9028812 34.2999505,31.8927005 34.6994179,32.2850699 L34.7808688,32.375305 L38.026,36.432 L43.2407434,30.3492086 Z" id="Path-19" fill="#46BEB9" fill-rule="nonzero"></path>
        <path d="M22,29 C19.790861,29 18,30.790861 18,33 C18,35.209139 19.790861,37 22,37 C24.209139,37 26,35.209139 26,33 C26,30.790861 24.209139,29 22,29 Z M22,31 C23.1045695,31 24,31.8954305 24,33 C24,34.1045695 23.1045695,35 22,35 C20.8954305,35 20,34.1045695 20,33 C20,31.8954305 20.8954305,31 22,31 Z" id="Oval" fill="#46BEB9" fill-rule="nonzero"></path>
        <path d="M32,47 C32.5522847,47 33,47.4477153 33,48 C33,48.5128358 32.6139598,48.9355072 32.1166211,48.9932723 L32,49 L16,49 C15.4477153,49 15,48.5522847 15,48 C15,47.4871642 15.3860402,47.0644928 15.8833789,47.0067277 L16,47 L32,47 Z" id="Path-18" fill="#46BEB9" fill-rule="nonzero"></path>
    </g>
</svg>