<?xml version="1.0" encoding="UTF-8"?>
<svg width="64px" height="64px" viewBox="0 0 64 64" version="1.1" xmlns="http://www.w3.org/2000/svg" xmlns:xlink="http://www.w3.org/1999/xlink">
    <title>icon/request-colored</title>
    <g id="icon/request-colored" stroke="none" stroke-width="1" fill="none" fill-rule="evenodd">
        <g id="Group" transform="translate(19.000000, 8.000000)" stroke="#181F65" stroke-linecap="round" stroke-linejoin="round" stroke-width="2">
            <rect id="Rectangle" x="6" y="34" width="14" height="6"></rect>
            <rect id="Rectangle" fill="#FFFFFF" x="3" y="40" width="20" height="8" rx="2"></rect>
            <rect id="Rectangle-Copy-2" fill="#FFFFFF" x="8" y="10" width="6" height="12" rx="3"></rect>
            <rect id="Rectangle-Copy-3" fill="#FFFFFF" x="2" y="0" width="6" height="24" rx="3"></rect>
            <path d="M8.5,17 L26,17 L26,17 L26,27.5 C26,32.1944204 22.1944204,36 17.5,36 L8.5,36 C3.80557963,36 5.74900688e-16,32.1944204 0,27.5 L0,25.5 C-5.74900688e-16,20.8055796 3.80557963,17 8.5,17 Z" id="Rectangle" fill="#FFFFFF"></path>
            <rect id="Rectangle" fill="#FFFFFF" x="20" y="12" width="6" height="10" rx="3"></rect>
            <rect id="Rectangle-Copy" fill="#FFFFFF" x="14" y="11" width="6" height="11" rx="3"></rect>
            <path d="M14,17 C14,21 12,23 8,23 L8,25 C12,25 14,26.3333333 14,29" id="Path-20"></path>
        </g>
        <circle id="Oval" fill="#46BEB9" cx="41.5" cy="9.5" r="3.5"></circle>
    </g>
</svg>