<?xml version="1.0" encoding="UTF-8"?>
<svg width="64px" height="64px" viewBox="0 0 64 64" version="1.1" xmlns="http://www.w3.org/2000/svg" xmlns:xlink="http://www.w3.org/1999/xlink">
    <title>icon/user-reviews-colored</title>
    <g id="icon/user-reviews-colored" stroke="none" stroke-width="1" fill="none" fill-rule="evenodd">
        <path d="M27,23 L51,23 C53.7614237,23 56,25.2385763 56,28 L56,42.7058824 C56,45.4673061 53.7614237,47.7058824 51,47.7058824 L40.7894737,47.7058824 L40.7894737,47.7058824 L30.9473684,53 L30.9473684,47.7058824 L27,47.7058824 C24.2385763,47.7058824 22,45.4673061 22,42.7058824 L22,28 C22,25.2385763 24.2385763,23 27,23 Z" id="Rectangle-2" fill="#FFFFFF" transform="translate(39.000000, 38.000000) scale(-1, 1) translate(-39.000000, -38.000000) "></path>
        <path d="M51,22 L27,22 C23.6862915,22 21,24.6862915 21,28 L21,42.7058824 L21.0041385,42.9308206 C21.1224282,46.1403075 23.7616031,48.7058824 27,48.7058824 L29.947,48.705 L29.9473684,53 L29.9539406,53.1170859 C30.0319772,53.8049507 30.7899344,54.2201764 31.4210882,53.8806756 L41.042,48.705 L51,48.7058824 C54.3137085,48.7058824 57,46.0195909 57,42.7058824 L57,28 C57,24.6862915 54.3137085,22 51,22 Z M27,24 L51,24 C53.209139,24 55,25.790861 55,28 L55,42.7058824 C55,44.9150214 53.209139,46.7058824 51,46.7058824 L40.7894737,46.7058824 L40.6661778,46.7135122 C40.5438209,46.7287144 40.4249641,46.766462 40.3157539,46.8252067 L31.947,51.326 L31.9473684,47.7058824 C31.9473684,47.1535976 31.4996532,46.7058824 30.9473684,46.7058824 L27,46.7058824 C24.790861,46.7058824 23,44.9150214 23,42.7058824 L23,28 C23,25.790861 24.790861,24 27,24 Z" id="Rectangle-2" fill="#181F65" fill-rule="nonzero" transform="translate(39.000000, 38.000697) scale(-1, 1) translate(-39.000000, -38.000697) "></path>
        <path d="M13,11 L41,11 C43.7614237,11 46,13.2385763 46,16 L46,34 C46,36.7614237 43.7614237,39 41,39 L29,39 L29,39 L18,45 L18,39 L13,39 C10.2385763,39 8,36.7614237 8,34 L8,16 C8,13.2385763 10.2385763,11 13,11 Z" id="Rectangle-1" fill="#FFFFFF"></path>
        <path d="M41,10 L13,10 C9.6862915,10 7,12.6862915 7,16 L7,34 L7.00413847,34.2249383 C7.12242824,37.4344251 9.76160306,40 13,40 L17,40 L17,45 L17.0059738,45.1117121 C17.0808825,45.805176 17.8457962,46.2231988 18.4788521,45.8778956 L29.253,40 L41,40 C44.3137085,40 47,37.3137085 47,34 L47,16 C47,12.6862915 44.3137085,10 41,10 Z M13,12 L41,12 C43.209139,12 45,13.790861 45,16 L45,34 C45,36.209139 43.209139,38 41,38 L29,38 L28.8752479,38.0078118 C28.7514685,38.0233753 28.6313143,38.0620136 28.5211479,38.1221044 L19,43.315 L19,39 C19,38.4477153 18.5522847,38 18,38 L13,38 C10.790861,38 9,36.209139 9,34 L9,16 C9,13.790861 10.790861,12 13,12 Z" id="Rectangle-1" fill="#181F65" fill-rule="nonzero"></path>
        <path d="M27,29.3916667 L30.4583333,31.4833333 C31.0916667,31.8666667 31.8666667,31.3 31.7,30.5833333 L30.7833333,26.65 L33.8416667,24 C34.4,23.5166667 34.1,22.6 33.3666667,22.5416667 L29.3416667,22.2 L27.7666667,18.4833333 C27.4833333,17.8083333 26.5166667,17.8083333 26.2333333,18.4833333 L24.6583333,22.1916667 L20.6333333,22.5333333 C19.9,22.5916667 19.6,23.5083333 20.1583333,23.9916667 L23.2166667,26.6416667 L22.3,30.575 C22.1333333,31.2916667 22.9083333,31.8583333 23.5416667,31.475 L27,29.3916667 Z" id="🔹-Icon-Color" fill="#46BEB9" fill-rule="nonzero"></path>
    </g>
</svg>