<?xml version="1.0" encoding="UTF-8"?>
<svg width="16px" height="16px" viewBox="0 0 16 16" version="1.1" xmlns="http://www.w3.org/2000/svg" xmlns:xlink="http://www.w3.org/1999/xlink">
    <title>icon/small/globe</title>
    <g id="icon/small/globe" stroke="none" stroke-width="1" fill="none" fill-rule="evenodd">
        <path d="M13.9828571,10.5645714 L13.6731429,10.4 C13.5047537,10.3130136 13.3904512,10.1481953 13.368,9.96 L13.2628571,9.06628571 C13.2254221,8.74729867 13.0127995,8.47600641 12.712,8.36342857 L11.3371429,7.85142857 C11.1859492,7.7944363 11.065951,7.67609898 11.0068571,7.52571429 L10.4,5.97828571 C10.3783729,5.92469944 10.3634039,5.86866154 10.3554286,5.81142857 C10.3003577,5.41509607 10.5754779,5.0486094 10.9714286,4.99085714 L12.032,4.84457143 C12.2659092,4.81180109 12.4761595,4.68457693 12.6137143,4.49257143 L13.1028571,3.80685714 C11.8613803,2.2590974 9.98414312,1.35894851 8,1.35999908 L7.89485714,1.35999908 L8.12342857,2.60342857 C8.15148074,2.7525748 8.1190513,2.90675397 8.0332926,3.03196167 C7.94753391,3.15716936 7.81549085,3.24312003 7.66628571,3.27085714 C7.60269905,3.28114368 7.53787238,3.28114368 7.47428571,3.27085714 C7.10990436,3.1944593 6.74337906,3.39122551 6.60571429,3.73714286 L6.31314286,4.54971429 C6.21053824,4.83492078 5.90309891,4.99039581 5.61257143,4.904 L5.08228571,4.74628571 C4.93148895,4.69752664 4.76767604,4.70899354 4.62514286,4.77828571 C4.40464315,4.88570168 4.2395766,5.08101379 4.17041623,5.31633305 C4.10125585,5.55165231 4.1343972,5.80521776 4.26171429,6.01485714 L4.84571429,6.97485714 C5.00197471,7.22982092 5.27924843,7.38554407 5.57828571,7.38628571 L6.65257143,7.38628571 C6.74235919,7.38593994 6.83092421,7.40710149 6.91085714,7.448 L8,8 C8.16909377,8.08568969 8.28468553,8.24965874 8.30857143,8.43771429 L8.34057143,8.688 C8.36895801,8.91438775 8.49400697,9.11738389 8.68342857,9.24457143 L9.29371429,9.65257143 C9.62758933,9.87539261 9.71764036,10.326671 9.49485714,10.6605714 C9.47069256,10.6973456 9.44314422,10.731781 9.41257143,10.7634286 L8.53828571,11.6662857 C8.43691652,11.7706565 8.36410632,11.8993534 8.32685714,12.04 L7.67885714,14.44 L7.67885714,14.44 C10.3788004,14.5737004 12.8832502,13.0340722 13.9828571,10.5645714 L13.9828571,10.5645714 Z M4.98171429,13.8091429 L5.05257143,13.2308571 C5.08473084,12.9645906 5.01803696,12.6957817 4.86514286,12.4754286 L3.8,10.9417143 C3.61607011,10.6772105 3.64936548,10.3186821 3.87885714,10.0925714 C3.95848686,10.0130409 4.00323071,9.90511476 4.00323071,9.79257143 C4.00323071,9.6800281 3.95848686,9.57210199 3.87885714,9.49257143 C3.85229329,9.46556424 3.82232732,9.44212931 3.78971429,9.42285714 L1.45485714,8.072 C1.48096932,10.4888937 2.83695105,12.6946709 4.98171429,13.8091429 L4.98171429,13.8091429 Z M8,16 C3.581722,16 0,12.418278 0,8 C0,3.581722 3.581722,0 8,0 C12.418278,0 16,3.581722 16,8 C16,10.1217319 15.1571453,12.1565632 13.6568542,13.6568542 C12.1565632,15.1571453 10.1217319,16 8,16 Z" id="🔹Icon-Color" fill="#000000" fill-rule="nonzero"></path>
    </g>
</svg>