<?xml version="1.0" encoding="UTF-8"?>
<svg width="64px" height="64px" viewBox="0 0 64 64" version="1.1" xmlns="http://www.w3.org/2000/svg" xmlns:xlink="http://www.w3.org/1999/xlink">
    <title>icon/ads</title>
    <g id="icon/ads" stroke="none" stroke-width="1" fill="none" fill-rule="evenodd" stroke-linecap="round" stroke-linejoin="round">
        <g id="Group" transform="translate(6.000000, 12.000000)" stroke-width="2">
            <rect id="Rectangle" stroke="#181F65" fill="#FFFFFF" x="33" y="0" width="6" height="38" rx="3"></rect>
            <path d="M3.5,14 L7,14 L7,14 L7,22 L3.5,22 C1.56700338,22 2.36723813e-16,20.4329966 0,18.5 L0,17.5 C-2.36723813e-16,15.5670034 1.56700338,14 3.5,14 Z" id="Rectangle" stroke="#181F65" fill="#FFFFFF"></path>
            <path d="M11.1537325,9.15975894 L20,9.5 L20,9.5 L33,6 L33,30 L20,26.5 L11.1537325,26.8402411 C8.94622566,26.9251452 7.08785941,25.2044357 7.0029553,22.9969288 C7.00098528,22.9457084 7,22.8944547 7,22.8431964 L7,13.1568036 C7,10.9476646 8.790861,9.15680364 11,9.15680364 C11.0512584,9.15680364 11.102512,9.15778892 11.1537325,9.15975894 Z" id="Rectangle" stroke="#181F65" fill="#FFFFFF"></path>
            <line x1="20" y1="10" x2="20" y2="26" id="Path-22" stroke="#181F65"></line>
            <path d="M10,27 L16,27 L16,37 C16,38.6568542 14.6568542,40 13,40 C11.3431458,40 10,38.6568542 10,37 L10,27 L10,27 Z" id="Rectangle" stroke="#181F65" fill="#FFFFFF"></path>
            <line x1="47" y1="20" x2="52" y2="20" id="Path-4" stroke="#46BEB9"></line>
            <line x1="44" y1="12" x2="49" y2="12" id="Path-4-Copy-2" stroke="#46BEB9" transform="translate(46.500000, 12.000000) rotate(-35.000000) translate(-46.500000, -12.000000) "></line>
            <line x1="44" y1="28" x2="49" y2="28" id="Path-4-Copy" stroke="#46BEB9" transform="translate(46.500000, 28.000000) rotate(35.000000) translate(-46.500000, -28.000000) "></line>
        </g>
    </g>
</svg>