<?xml version="1.0" encoding="UTF-8"?>
<svg width="64px" height="64px" viewBox="0 0 64 64" version="1.1" xmlns="http://www.w3.org/2000/svg" xmlns:xlink="http://www.w3.org/1999/xlink">
    <title>icon/services-colored</title>
    <g id="icon/services-colored" stroke="none" stroke-width="1" fill="none" fill-rule="evenodd">
        <g id="icon" transform="translate(7.000000, 6.000000)">
            <g id="hand" transform="translate(0.000000, 29.000000)" fill-rule="nonzero">
                <path d="M2.16822079,5.1521806 C9.28681302,1.74754313 13.9034424,0.569755399 15.752786,1.49442718 C16.3210447,1.77855656 16.8689748,2.15026049 17.5966381,2.72430596 L17.5966381,2.72430596 L17.6742183,2.78598598 L18.7398691,3.64547743 L19.2009393,4.00959922 C22.474016,6.53121095 25.5056652,7.51442081 30.6995029,6.99503703 C31.4906043,6.99635059 32.0898911,7.19062747 32.493755,7.48806038 L32.493755,7.48806038 L32.5317778,7.54018422 C32.6032372,7.62593551 32.6860119,7.6966971 32.7782611,7.74999043 C33.5256049,8.61930235 33.0376461,9.98481165 31.2574643,10.4298572 C27.3566764,11.405054 20.5815851,11.1227585 17.5472131,9.60557253 C17.0532346,9.35858328 16.4525616,9.55880763 16.2055724,10.0527861 C15.9585831,10.5467646 16.1588075,11.1474377 16.652786,11.3944269 C20.1638684,13.1499681 27.4147506,13.4520882 31.7425356,12.3701422 L31.7425356,12.3701422 L31.9590954,12.3118424 C32.6687737,12.1068145 33.256632,11.7960595 33.7244399,11.4163226 L33.7244399,11.4163226 L33.76,11.386 L36.4123464,9.93504048 C40.3729908,7.75432754 43.268068,6.10620127 45.1072137,4.98441912 L45.1072137,4.98441912 L45.8811078,4.50402433 L46.454699,4.13205021 C47.4075601,3.49680949 48.5131325,3.44976385 48.9617073,3.83425652 C49.3212802,4.14246181 49.1699724,4.91581258 47.8928919,6.19289304 C43.6768932,10.4088932 30.4816268,18.6559346 25.9356003,19.4136055 C24.7236312,19.6156004 23.2751339,19.3396962 21.5641988,18.6223786 C20.4535707,18.1567427 19.3007732,17.5421522 17.8652713,16.6778181 L17.8652713,16.6778181 L14.8780183,14.8339161 L14.151453,14.394604 L13.6058644,14.081682 C12.418049,13.4259121 11.5601244,13.0999996 10.7999997,13.0999996 L10.7999997,13.0999996 L10.5271131,13.1057769 C8.98253901,13.1712213 7.4683732,13.7921581 5.98903765,14.9418817 L5.98903765,14.9418817 L5.736,15.143 L1.315,5.565 Z M41.7162267,2.44868326 C42.6293408,2.14431188 42.9942567,2.33639453 43.0802307,3.52578886 L43.0802307,3.52578886 L43.0965081,3.85901829 C42.2450188,4.36326174 41.2248567,4.95206246 40.0366283,5.62502749 L40.0366283,5.62502749 L38.3527823,6.57215487 L35.093,8.377 L35.0876796,8.29970743 C35.043083,7.86500376 34.9125558,7.43907226 34.6969543,7.04458087 C37.8282213,4.49418068 40.1885902,2.95789541 41.7162267,2.44868326 Z M34.6472127,1.49442717 C36.3879062,0.624080409 37.1947223,0.855259254 37.6490955,2.34957706 C36.4111845,3.16243108 35.0005759,4.21640454 33.4103772,5.51294187 L33.4103772,5.51294187 L33.2693576,5.62880165 C32.5736213,5.23764773 31.6824846,4.99999984 30.5999992,4.99999984 C29.9959125,5.05979248 29.4275038,5.09872232 28.8909419,5.11461951 C30.9829483,3.57340652 32.9026695,2.36669878 34.6472127,1.49442717 Z" id="Combined-Shape" fill="#FFFFFF"></path>
                <path d="M-0.447213595,4.20557267 L0.473198588,3.7501323 C8.64992555,-0.252316013 13.9418037,-1.64713192 16.6472132,-0.294427207 C17.2706231,0.0172777506 17.8464013,0.393972884 18.5335744,0.919507659 L18.8353609,1.15409394 C19.0785154,1.34591576 19.9606712,2.06239842 20.155215,2.21688907 C23.1569901,4.60065172 25.7091624,5.48409596 30.5999992,4.99999984 C33.3923135,4.99999984 34.9113885,6.58131506 35.0876796,8.29970743 L35.093,8.377 L38.3527823,6.57215487 C41.6873444,4.7080418 43.9789339,3.36598286 45.2181522,2.55206712 L45.3452986,2.46794962 C46.9850511,1.37478129 49.0623716,1.28638467 50.2632901,2.31574332 C51.704914,3.55142096 51.3016466,5.61256552 49.3071056,7.60710648 C44.8231086,12.091105 31.2911009,20.5486098 26.2643983,21.3863934 C24.6208574,21.6603169 22.8189273,21.3170921 20.7909026,20.4668333 C19.5773516,19.9580464 18.3497556,19.3038971 16.8415772,18.3960091 L12.5311475,15.7724252 C11.5545946,15.1933564 11.3179493,15.0960763 11.1073577,15.0894154 L10.7999997,15.0999996 C9.29453701,15.0999996 7.73388969,15.8803233 6.10710664,17.5071063 C5.64407453,17.9701384 4.88025396,17.8660053 4.54891864,17.3254869 L4.49204047,17.2190577 L-0.907959385,5.51905804 C-1.13430273,5.02864745 -0.930315124,4.44712344 -0.447213595,4.20557267 Z M17.8652713,16.6778181 C19.3007732,17.5421522 20.4535707,18.1567427 21.5641988,18.6223786 C23.2751339,19.3396962 24.7236312,19.6156004 25.9356003,19.4136055 C30.4816268,18.6559346 43.6768932,10.4088932 47.8928919,6.19289304 C49.1699724,4.91581258 49.3212802,4.14246181 48.9617073,3.83425652 C48.5131325,3.44976385 47.4075601,3.49680949 46.454699,4.13205021 L45.8811078,4.50402433 C44.1336405,5.6116911 40.9823207,7.41883324 36.4123464,9.93504048 L33.76,11.386 L33.7244399,11.4163226 C33.256632,11.7960595 32.6687737,12.1068145 31.9590954,12.3118424 L31.7425356,12.3701422 C27.4147506,13.4520882 20.1638684,13.1499681 16.652786,11.3944269 C16.1588075,11.1474377 15.9585831,10.5467646 16.2055724,10.0527861 C16.4525616,9.55880763 17.0532346,9.35858328 17.5472131,9.60557253 C20.5815851,11.1227585 27.3566764,11.405054 31.2574643,10.4298572 C33.9392615,9.75940777 33.688406,6.99999984 30.6995029,6.99503703 C25.5056652,7.51442081 22.474016,6.53121095 19.2009393,4.00959922 L18.7398691,3.64547743 C18.4434403,3.40666938 17.9187632,2.98137334 17.6742183,2.78598598 L17.5966381,2.72430596 C16.8689748,2.15026049 16.3210447,1.77855656 15.752786,1.49442718 C13.9034424,0.569755399 9.28681302,1.74754313 2.16822079,5.1521806 L1.315,5.565 L5.736,15.143 L5.98903765,14.9418817 C7.4683732,13.7921581 8.98253901,13.1712213 10.5271131,13.1057769 L10.7999997,13.0999996 C11.5601244,13.0999996 12.418049,13.4259121 13.6058644,14.081682 L14.151453,14.394604 C14.8799859,14.828245 16.3240064,15.7230438 17.0459681,16.1725397 L17.8652713,16.6778181 Z" id="Path" fill="#181F65"></path>
                <path d="M41.0837711,0.551316662 C43.6195861,-0.293954979 45.0999988,1.18645779 45.0999988,4.19999989 C45.0999988,4.75228464 44.6522836,5.19999989 44.0999988,5.19999989 C43.5477141,5.19999989 43.0999988,4.75228464 43.0999988,4.19999989 C43.0999988,2.41354211 42.7804116,2.09395493 41.7162267,2.44868326 C40.0678666,2.9981366 37.449958,4.74340904 33.9401835,7.6682211 C33.5159066,8.02178518 32.8853419,7.96446111 32.5317778,7.54018422 C32.1782138,7.11590732 32.2355378,6.48534262 32.6598147,6.13177854 L33.4103772,5.51294187 C36.7298269,2.80649365 39.2667271,1.15699801 41.0837711,0.551316662 Z" id="Path-2" fill="#181F65"></path>
                <path d="M33.7527855,-0.294427207 C36.7040593,-1.7700641 38.908726,-0.888197396 39.6701415,2.15746431 C39.8040902,2.69325922 39.4783295,3.23619371 38.9425346,3.37014244 C38.4067397,3.50409116 37.8638052,3.17833047 37.7298565,2.64253556 C37.2912719,0.888197396 36.4959388,0.570064133 34.6472127,1.49442717 C32.316697,2.65968508 29.6735586,4.42177735 26.7246944,6.7808688 C26.2934324,7.12587836 25.6641401,7.05595699 25.3191305,6.62469505 C24.974121,6.19343312 25.0440423,5.56414075 25.4753043,5.2191312 C28.52644,2.77822256 31.2833015,0.940314823 33.7527855,-0.294427207 Z" id="Path-3" fill="#181F65"></path>
            </g>
            <g id="gear" transform="translate(13.000000, 0.000000)">
                <path d="M21.0727273,16.2727273 C20.775622,16.9459164 20.9181827,17.7321599 21.4327273,18.2581818 L21.4981818,18.3236364 C21.9078772,18.7328762 22.13808,19.288198 22.13808,19.8672727 C22.13808,20.4463475 21.9078772,21.0016693 21.4981818,21.4109091 C21.088942,21.8206045 20.5336202,22.0508073 19.9545455,22.0508073 C19.3754707,22.0508073 18.8201489,21.8206045 18.4109091,21.4109091 L18.3454545,21.3454545 C17.8194327,20.83091 17.0331892,20.6883493 16.36,20.9854545 C15.7005775,21.2680745 15.2719523,21.9152986 15.2690909,22.6327273 L15.2690909,22.8181818 C15.2690909,24.0231667 14.2922576,25 13.0872727,25 C11.8822878,25 10.9054545,24.0231667 10.9054545,22.8181818 L10.9054545,22.72 C10.8881708,21.9810954 10.420951,21.3278529 9.72727273,21.0727273 C9.05408356,20.775622 8.26784007,20.9181827 7.74181818,21.4327273 L7.67636364,21.4981818 C7.2671238,21.9078772 6.711802,22.13808 6.13272727,22.13808 C5.55365255,22.13808 4.99833074,21.9078772 4.58909091,21.4981818 C4.17939554,21.088942 3.94919275,20.5336202 3.94919275,19.9545455 C3.94919275,19.3754707 4.17939554,18.8201489 4.58909091,18.4109091 L4.65454545,18.3454545 C5.16909005,17.8194327 5.31165068,17.0331892 5.01454545,16.36 C4.73192551,15.7005775 4.08470137,15.2719523 3.36727273,15.2690909 L3.18181818,15.2690909 C1.97683327,15.2690909 1,14.2922576 1,13.0872727 C1,11.8822878 1.97683327,10.9054545 3.18181818,10.9054545 L3.28,10.9054545 C4.01890456,10.8881708 4.67214708,10.420951 4.92727273,9.72727273 C5.22437795,9.05408356 5.08181732,8.26784007 4.56727273,7.74181818 L4.50181818,7.67636364 C4.09212282,7.2671238 3.86192002,6.711802 3.86192002,6.13272727 C3.86192002,5.55365255 4.09212282,4.99833074 4.50181818,4.58909091 C4.91105802,4.17939554 5.46637982,3.94919275 6.04545455,3.94919275 C6.62452927,3.94919275 7.17985108,4.17939554 7.58909091,4.58909091 L7.65454545,4.65454545 C8.18056735,5.16909005 8.96681083,5.31165068 9.64,5.01454545 L9.72727273,5.01454545 C10.3866952,4.73192551 10.8153205,4.08470137 10.8181818,3.36727273 L10.8181818,3.18181818 C10.8181818,1.97683327 11.7950151,1 13,1 C14.2049849,1 15.1818182,1.97683327 15.1818182,3.18181818 L15.1818182,3.28 C15.1846795,3.99742864 15.6133048,4.64465278 16.2727273,4.92727273 C16.9459164,5.22437795 17.7321599,5.08181732 18.2581818,4.56727273 L18.3236364,4.50181818 C18.7328762,4.09212282 19.288198,3.86192002 19.8672727,3.86192002 C20.4463475,3.86192002 21.0016693,4.09212282 21.4109091,4.50181818 C21.8206045,4.91105802 22.0508073,5.46637982 22.0508073,6.04545455 C22.0508073,6.62452927 21.8206045,7.17985108 21.4109091,7.58909091 L21.3454545,7.65454545 C20.83091,8.18056735 20.6883493,8.96681083 20.9854545,9.64 L20.9854545,9.72727273 C21.2680745,10.3866952 21.9152986,10.8153205 22.6327273,10.8181818 L22.8181818,10.8181818 C24.0231667,10.8181818 25,11.7950151 25,13 C25,14.2049849 24.0231667,15.1818182 22.8181818,15.1818182 L22.72,15.1818182 C22.0025714,15.1846795 21.3553472,15.6133048 21.0727273,16.2727273 Z" id="Path" fill="#FFFFFF"></path>
                <path d="M13,0 C11.2427303,0 9.81818182,1.42454852 9.81818182,3.18181818 L9.81818182,3.36727273 L9.81087069,3.47103614 C9.78270641,3.67580733 9.67471659,3.86182514 9.5125782,3.98913917 L9.443,4.036 L9.36655191,4.05265864 C9.32218413,4.06527159 9.27863662,4.08096919 9.23623466,4.09968287 C8.93703947,4.23172964 8.58759792,4.16836936 8.35381042,3.93968287 L8.29619769,3.88198413 C7.69978282,3.28490516 6.88993852,2.94919275 6.04545455,2.94919275 C5.20097057,2.94919275 4.39112627,3.28490516 3.79431818,3.88237757 C3.19763243,4.478399 2.86192002,5.2882433 2.86192002,6.13272727 C2.86192002,6.97721124 3.19763243,7.78705555 3.79510484,8.38386364 L3.86016595,8.44892496 C4.08109663,8.67487065 4.14445691,9.0243122 4.01241014,9.32350739 C3.87534745,9.6903931 3.58501744,9.89804636 3.25661541,9.905728 L3.18181818,9.90545455 C1.42454852,9.90545455 0,11.3300031 0,13.0872727 C0,14.8445424 1.42454852,16.2690909 3.18181818,16.2690909 L3.36727273,16.2690909 C3.68214159,16.2703547 3.96979676,16.4608548 4.09540563,16.7539314 C4.23172964,17.0629605 4.16836936,17.4124021 3.93968287,17.6461896 L3.88198413,17.7038023 C3.28490516,18.3002172 2.94919275,19.1100615 2.94919275,19.9545455 C2.94919275,20.7990294 3.28490516,21.6088737 3.88237757,22.2056818 C4.478399,22.8023676 5.2882433,23.13808 6.13272727,23.13808 C6.97721124,23.13808 7.78705555,22.8023676 8.38386364,22.2048952 L8.44892496,22.1398341 C8.67487065,21.9189034 9.0243122,21.8555431 9.32350739,21.9875899 C9.6903931,22.1246526 9.89804636,22.4149826 9.905728,22.7433846 L9.90545455,22.8181818 C9.90545455,24.5754515 11.3300031,26 13.0872727,26 C14.8445424,26 16.2690909,24.5754515 16.2690909,22.8181818 L16.2690909,22.6327273 C16.2703547,22.3178584 16.4608548,22.0302032 16.7539314,21.9045944 C17.0629605,21.7682704 17.4124021,21.8316306 17.6461896,22.0603171 L17.7038023,22.1180159 C18.3002172,22.7150948 19.1100615,23.0508073 19.9545455,23.0508073 C20.7990294,23.0508073 21.6088737,22.7150948 22.2056818,22.1176224 C22.8023676,21.521601 23.13808,20.7117567 23.13808,19.8672727 C23.13808,19.0227888 22.8023676,18.2129445 22.2048952,17.6161364 L22.1398341,17.551075 C21.9189034,17.3251293 21.8555431,16.9756878 21.9875899,16.6764926 C22.117476,16.3735821 22.4051311,16.1830819 22.7239883,16.1818102 L22.8181818,16.1818182 C24.5754515,16.1818182 26,14.7572697 26,13 C26,11.2427303 24.5754515,9.81818182 22.8181818,9.81818182 L22.6327273,9.81818182 L22.5289639,9.81087069 C22.3241927,9.78270641 22.1381749,9.67471659 22.0108608,9.5125782 L21.963,9.443 L21.9473414,9.36655191 C21.9347284,9.32218413 21.9190308,9.27863662 21.9003171,9.23623466 C21.7682704,8.93703947 21.8316306,8.58759792 22.0603171,8.35381042 L22.1180159,8.29619769 C22.7150948,7.69978282 23.0508073,6.88993852 23.0508073,6.04545455 C23.0508073,5.20097057 22.7150948,4.39112627 22.1176224,3.79431818 C21.521601,3.19763243 20.7117567,2.86192002 19.8672727,2.86192002 C19.0227888,2.86192002 18.2129445,3.19763243 17.6161364,3.79510484 L17.551075,3.86016595 C17.3251293,4.08109663 16.9756878,4.14445691 16.6764926,4.01241014 C16.3735821,3.88252404 16.1830819,3.59486886 16.1818102,3.27601169 L16.1818182,3.18181818 C16.1818182,1.42454852 14.7572697,0 13,0 Z M13,2 C13.6527002,2 14.1818182,2.52911802 14.1818182,3.18181818 L14.1818182,3.28 C14.1862771,4.39998842 14.8530275,5.40678153 15.8787958,5.84641255 C16.9161451,6.304299 18.1391905,6.08253801 18.9574468,5.28213531 L19.0307431,5.20892496 C19.2528079,4.9866132 19.5536073,4.86192002 19.8672727,4.86192002 C20.1809382,4.86192002 20.4817375,4.9866132 20.7034091,5.20853153 C20.9261141,5.43098976 21.0508073,5.73178907 21.0508073,6.04545455 C21.0508073,6.35912002 20.9261141,6.65991933 20.7041957,6.88159091 L20.6383478,6.94743867 L20.5018386,7.09722466 C19.8933878,7.81436704 19.686523,8.77786761 19.9357148,9.66780177 L19.993,9.848 L19.9854545,9.72727273 C19.9854545,9.86270395 20.0129641,9.99672394 20.0663147,10.1212042 C20.5059457,11.1469725 21.5127389,11.8137229 22.628739,11.8181739 L22.8181818,11.8181818 C23.470882,11.8181818 24,12.3472998 24,13 C24,13.6527002 23.470882,14.1818182 22.8181818,14.1818182 L22.72,14.1818182 C21.6000116,14.1862771 20.5932185,14.8530275 20.1535874,15.8787958 C19.695701,16.9161451 19.917462,18.1391905 20.7178647,18.9574468 L20.791075,19.0307431 C21.0133868,19.2528079 21.13808,19.5536073 21.13808,19.8672727 C21.13808,20.1809382 21.0133868,20.4817375 20.7914685,20.7034091 C20.5690102,20.9261141 20.2682109,21.0508073 19.9545455,21.0508073 C19.64088,21.0508073 19.3400807,20.9261141 19.1184091,20.7041957 L19.0525613,20.6383478 C18.2264632,19.8301893 17.0034178,19.6084283 15.9562347,20.070592 C14.9403003,20.5059457 14.2735499,21.5127389 14.2690989,22.628739 L14.2690909,22.8181818 C14.2690909,23.470882 13.7399729,24 13.0872727,24 C12.4345726,24 11.9054545,23.470882 11.9054545,22.8181818 L11.9054545,22.72 C11.8798042,21.6123634 11.2301036,20.6444428 10.248975,20.2059897 L10.0724538,20.1341912 C9.08385492,19.695701 7.8608095,19.917462 7.04255322,20.7178647 L6.96925686,20.791075 C6.74719206,21.0133868 6.44639275,21.13808 6.13272727,21.13808 C5.8190618,21.13808 5.51826249,21.0133868 5.29659091,20.7914685 C5.07388593,20.5690102 4.94919275,20.2682109 4.94919275,19.9545455 C4.94919275,19.64088 5.07388593,19.3400807 5.29580425,19.1184091 L5.36165224,19.0525613 C6.16981074,18.2264632 6.39157172,17.0034178 5.92940804,15.9562347 C5.49405425,14.9403003 4.48726115,14.2735499 3.37126104,14.2690989 L3.18181818,14.2690909 C2.52911802,14.2690909 2,13.7399729 2,13.0872727 C2,12.4345726 2.52911802,11.9054545 3.18181818,11.9054545 L3.28,11.9054545 C4.38763658,11.8798042 5.35555715,11.2301036 5.79401028,10.248975 L5.86580883,10.0724538 C6.304299,9.08385492 6.08253801,7.8608095 5.28213531,7.04255322 L5.20892496,6.96925686 C4.9866132,6.74719206 4.86192002,6.44639275 4.86192002,6.13272727 C4.86192002,5.8190618 4.9866132,5.51826249 5.20853153,5.29659091 C5.43098976,5.07388593 5.73178907,4.94919275 6.04545455,4.94919275 C6.35912002,4.94919275 6.65991933,5.07388593 6.88159091,5.29580425 L6.94743867,5.36165224 L7.09722466,5.49816142 C7.81436704,6.10661221 8.77786761,6.31347702 9.66780177,6.06428518 L9.848,6.006 L9.72727273,6.01454545 C9.86270395,6.01454545 9.99672394,5.9870359 10.1212042,5.93368528 C11.1469725,5.49405425 11.8137229,4.48726115 11.8181739,3.37126104 L11.8181818,3.18181818 C11.8181818,2.52911802 12.3472998,2 13,2 Z" id="Path" fill="#46BEB9" fill-rule="nonzero"></path>
                <path d="M13,8.72727273 C10.6402379,8.72727273 8.72727273,10.6402379 8.72727273,13 C8.72727273,15.3597621 10.6402379,17.2727273 13,17.2727273 C15.3597621,17.2727273 17.2727273,15.3597621 17.2727273,13 C17.2727273,10.6402379 15.3597621,8.72727273 13,8.72727273 Z M13,10.7272727 C14.2551926,10.7272727 15.2727273,11.7448074 15.2727273,13 C15.2727273,14.2551926 14.2551926,15.2727273 13,15.2727273 C11.7448074,15.2727273 10.7272727,14.2551926 10.7272727,13 C10.7272727,11.7448074 11.7448074,10.7272727 13,10.7272727 Z" id="Oval" fill="#46BEB9" fill-rule="nonzero"></path>
            </g>
        </g>
    </g>
</svg>