<?xml version="1.0" encoding="UTF-8"?>
<svg width="16px" height="16px" viewBox="0 0 16 16" version="1.1" xmlns="http://www.w3.org/2000/svg" xmlns:xlink="http://www.w3.org/1999/xlink">
    <title>icon/small/star</title>
    <g id="icon/small/star" stroke="none" stroke-width="1" fill="none" fill-rule="evenodd">
        <path d="M13.9772299,6.36405726 C13.9077367,6.12170084 13.6758433,5.95427925 13.4122924,5.9561857 L9.78450789,5.9561857 L8.60155473,2.41909886 C8.51772962,2.16934191 8.27414131,2 7.9990632,2 C7.72398509,2 7.48053305,2.16972074 7.39690872,2.41953885 L6.21441712,5.9561857 L2.58570947,5.9561857 C2.32508829,5.9562053 2.09583272,6.12038409 2.0232325,6.35899721 C1.95063228,6.59761033 2.05215463,6.85324879 2.27231689,6.98620439 L5.19392963,8.90676467 L4.23436677,12.3488135 C4.22689927,12.3759181 4.22195687,12.4035983 4.21959717,12.4315318 C4.18933338,12.5502628 4.21206142,12.6756412 4.28236799,12.7778046 C4.37965688,12.9173337 4.54417158,13.0007117 4.71991758,12.99956 C4.86576744,12.99956 4.86992139,12.99956 7.99923173,10.8431646 L11.0214624,12.9260815 C11.1029714,12.9716822 11.1951634,12.9970949 11.2896231,13 C11.4639957,12.9983319 11.6256656,12.9127475 11.7193263,12.7725247 C11.7796711,12.6823085 11.8034635,12.5742217 11.7862511,12.468491 L11.7742508,12.3941325 C11.7715771,12.3788893 11.7681891,12.3637678 11.7640967,12.3488135 L10.8045338,8.90676467 L13.7150694,6.99368424 C13.9427036,6.86523886 14.0504949,6.60635828 13.9772299,6.36405726" id="🔹Icon-Color" fill="#000000" fill-rule="nonzero"></path>
    </g>
</svg>